<svg id="svg" version="1.1" xmlns="http://www.w3.org/2000/svg" viewBox="0 0 478 454" style="display: block;"><path d="M0 0 C157.74 0 315.48 0 478 0 C478 149.82 478 299.64 478 454 C320.26 454 162.52 454 0 454 C0 304.18 0 154.36 0 0 Z " transform="translate(0,0)" style="fill: #000000;"/><path d="M0 0 C157.74 0 315.48 0 478 0 C478 149.82 478 299.64 478 454 C320.26 454 162.52 454 0 454 C0 304.18 0 154.36 0 0 Z M27.125 29.125 C21.67904352 37.79600393 22.71789002 48.87600034 22.75708008 58.72010803 C22.75604082 60.30624846 22.75413673 61.89238852 22.75144768 63.47852701 C22.7466811 67.81680015 22.75446477 72.15497195 22.76445746 76.49323285 C22.77310659 81.17970736 22.77021834 85.86617769 22.76899719 90.55265808 C22.768636 100.78790579 22.78344836 111.02309731 22.80155182 121.25832677 C22.81282485 127.65095435 22.82108423 134.04358362 22.82879639 140.43621635 C22.85070953 158.14321003 22.87637364 175.85018893 22.91601562 193.55715275 C22.9185441 194.6891002 22.92107258 195.82104766 22.92367768 196.98729655 C22.92621608 198.12189644 22.92875447 199.25649633 22.93136978 200.42547804 C22.93651164 202.7244886 22.94164749 205.02349918 22.94677734 207.32250977 C22.9493251 208.46289003 22.95187285 209.60327029 22.95449781 210.77820753 C22.99509643 229.27223921 23.00866928 247.76618438 23.01061761 266.2602566 C23.01300218 285.25732 23.03778089 304.25424637 23.08509541 323.25125211 C23.11113215 333.91383218 23.12755256 344.57623404 23.11929321 355.23884773 C23.11237343 364.31363889 23.12591143 373.38810968 23.16613513 382.4628194 C23.18604248 387.09189945 23.19629761 391.72046748 23.18047523 396.34957504 C23.16621776 400.58934766 23.17967312 404.82810615 23.21496427 409.06774753 C23.22287749 410.59920879 23.22073978 412.13076289 23.20738852 413.66218639 C23.14564572 421.38187246 23.36087905 427.7298805 28.03108025 434.18882078 C33.13672004 438.88542087 37.34064819 440.49974505 44.22649288 440.50336456 C45.27083034 440.51208521 45.27083034 440.51208521 46.33626553 440.52098203 C48.66292336 440.53554865 50.98852065 440.5217134 53.31517029 440.50793457 C55.00255896 440.51254484 56.68994361 440.5188986 58.37731987 440.52684355 C63.00941264 440.54354295 67.64117581 440.5352877 72.27326977 440.52289867 C77.27064252 440.51385296 82.26795836 440.52781559 87.26531982 440.53881836 C97.0535629 440.55661364 106.84168336 440.55275897 116.62993126 440.5411678 C124.58498886 440.53213722 132.54001207 440.53090786 140.49507332 440.53526306 C142.19287012 440.53618246 142.19287012 440.53618246 143.92496585 440.53712043 C146.22428227 440.53839932 148.52359868 440.53969618 150.82291508 440.5410108 C172.38879333 440.55241969 193.95460359 440.5392983 215.52047069 440.51780933 C234.02613236 440.4999405 252.53169366 440.50304011 271.03735352 440.52148438 C292.52408773 440.54288978 314.01076233 440.55131847 335.49750572 440.53903532 C337.78870745 440.53776112 340.07990918 440.53650363 342.37111092 440.53526306 C343.4984414 440.53464596 344.62577189 440.53402886 345.78726391 440.53339306 C353.73251847 440.52993899 361.67773523 440.53576978 369.62298393 440.54518127 C379.30604613 440.55639905 388.98897863 440.55336589 398.67202597 440.5320583 C403.61276342 440.52154461 408.5532846 440.51743155 413.49402046 440.53065491 C418.01736164 440.54257805 422.54028617 440.53601747 427.06358958 440.5147447 C428.69944307 440.51027829 430.33533179 440.51254581 431.97116261 440.52224785 C445.0095422 440.75344642 445.0095422 440.75344642 455.77688444 434.2909376 C461.39805319 427.42496338 460.83163653 419.52015597 460.74171448 411.11421204 C460.74648376 409.49791423 460.75387953 407.88162241 460.76366371 406.26534718 C460.78284938 401.83895582 460.76474437 397.41339146 460.74037087 392.98705471 C460.72059591 388.20788623 460.73549467 383.42880801 460.74601746 378.64962769 C460.76112689 369.29405531 460.74424047 359.93880157 460.71646655 350.5832688 C460.68528968 339.68938074 460.68552575 328.79556127 460.68698429 317.90163698 C460.68848554 298.46682813 460.6610165 279.03216749 460.61743164 259.59741211 C460.57515311 240.73540548 460.55392013 221.87352927 460.5559082 203.01147461 C460.55602807 201.84931627 460.55614794 200.68715793 460.55627144 199.48978267 C460.5563925 198.32963931 460.55651357 197.16949595 460.5566383 195.97419673 C460.55870731 174.50195105 460.54104295 153.02976081 460.51417865 131.55753309 C460.50512705 123.96198654 460.50193969 116.36645017 460.50058174 108.77089882 C460.49853623 99.51822188 460.48515438 90.2656384 460.45758332 81.01300112 C460.4437248 76.29126635 460.43459451 71.56965116 460.43836594 66.84789467 C460.44164981 62.52709575 460.43110402 58.20656141 460.40942036 53.88581767 C460.40397865 52.32139677 460.40359123 50.75694857 460.40872223 49.19252662 C460.41491994 47.06788349 460.40272103 44.94410679 460.38590336 42.81953907 C460.38273345 41.04862674 460.38273345 41.04862674 460.3794995 39.24193841 C459.65198766 33.02704592 456.65898705 29.00889583 452 25 C447.46817463 22.30456401 444.16066733 21.62406469 438.91217232 21.61968327 C438.21878956 21.61502335 437.5254068 21.61036343 436.81101245 21.6055623 C434.48816426 21.5936138 432.16590115 21.60300684 429.8430481 21.61231995 C428.16064914 21.60814695 426.47825299 21.60266962 424.79586208 21.59600013 C420.17296497 21.58152217 415.55024579 21.5857976 410.92733884 21.59316695 C405.94154251 21.59789052 400.95578513 21.58539593 395.97000122 21.57514954 C386.20236398 21.55794007 376.434791 21.55712601 366.66714253 21.56236244 C358.72875035 21.56640151 350.79037719 21.56496371 342.85198593 21.55961418 C341.72276127 21.55886576 340.59353661 21.55811734 339.43009301 21.55734624 C337.13617206 21.55581478 334.84225111 21.55427643 332.54833017 21.55273127 C311.02872896 21.53899836 289.50916408 21.54444939 267.98956369 21.55591648 C248.29827392 21.56584888 228.60707812 21.55290946 208.91580285 21.52898229 C188.70190266 21.50460494 168.48804626 21.49498011 148.27413166 21.50163502 C136.92352178 21.50513037 125.57298418 21.50287433 114.22238541 21.48538399 C104.55943407 21.47067905 94.89660589 21.47000419 85.23365702 21.4874549 C80.3030483 21.49598148 75.37265975 21.49807401 70.44206238 21.48280334 C65.92794037 21.46899559 61.41422797 21.47366892 56.9001299 21.49304258 C55.26760826 21.49681495 53.63505412 21.49384508 52.00256135 21.48343093 C38.06830634 21.26441271 38.06830634 21.26441271 27.125 29.125 Z " transform="translate(0,0)" style="fill: #000000;"/><path d="M0 0 C1.68555161 -0.00389491 3.37109992 -0.00953688 5.05664051 -0.0167709 C9.67894145 -0.03151595 14.30090139 -0.02134998 18.92319131 -0.00703418 C23.91164078 0.00407692 28.90004247 -0.00786738 33.88848877 -0.01687622 C43.65654505 -0.03080911 53.42447206 -0.0232524 63.19252218 -0.00820064 C74.56544133 0.00865736 85.93832826 0.00544952 97.31125604 0.00170528 C117.60066778 -0.00417325 137.89001745 0.00999876 158.17941284 0.03465271 C177.87279587 0.05857978 197.56609601 0.06565449 217.25949097 0.05516052 C238.70116252 0.04375544 260.14279573 0.0418157 281.58446681 0.05625862 C283.87000012 0.05778447 286.15553343 0.05930483 288.44106674 0.06081963 C290.12789596 0.06195635 290.12789596 0.06195635 291.84880254 0.06311603 C299.7789695 0.06786153 307.70911935 0.06600558 315.63928604 0.06175423 C325.30004048 0.0568315 334.96071648 0.06279454 344.62145294 0.08264852 C349.55178829 0.09253084 354.48200413 0.09761544 359.41234589 0.08975601 C363.92376278 0.08271141 368.43493825 0.08947519 372.94632326 0.10735964 C374.58009203 0.11141201 376.21388272 0.11039108 377.84764339 0.10384078 C380.06580304 0.09570715 382.2831459 0.10598179 384.50125313 0.12088871 C385.73404538 0.12191784 386.96683764 0.12294697 388.23698723 0.12400728 C394.51904677 0.83090321 398.53603295 3.79090658 402.58908081 8.50120544 C405.21646863 12.94676179 405.9657793 16.1783249 405.97498417 21.32074451 C405.98024328 21.98512532 405.98550239 22.64950613 405.99092087 23.33401969 C406.00486659 25.55821632 405.99751412 27.78182162 405.99021912 30.00604248 C405.99582482 31.61760839 406.00272749 33.22917023 406.01081508 34.8407256 C406.02917156 39.26785616 406.02876808 43.69481679 406.02523196 48.12197673 C406.02462 52.89716583 406.0411756 57.67230031 406.05540466 62.44746399 C406.08032717 71.80233836 406.08856931 81.15715601 406.0902418 90.5120608 C406.09166711 98.1157777 406.09783053 105.71947589 406.10734367 113.32318687 C406.13376402 134.87913012 406.14760166 156.43502856 406.14535225 177.99098811 C406.14523238 179.15314645 406.14511251 180.31530479 406.14498901 181.51268005 C406.14486637 182.67625663 406.14474373 183.8398332 406.14461737 185.03866967 C406.14339788 203.89837627 406.17210899 222.75790322 406.21440411 241.61755786 C406.2574856 260.98056658 406.27821522 280.34348766 406.27562279 299.70654553 C406.27462654 310.57824774 406.28288208 321.44976161 406.31515694 332.32142067 C406.34245918 341.57741762 406.34900854 350.83314084 406.32862867 360.0891606 C406.31882624 364.8114053 406.31868578 369.5331247 406.34468842 374.2553196 C406.36825887 378.5803114 406.36401736 382.90436068 406.33783602 387.22932925 C406.33322531 388.791888 406.33870176 390.35451679 406.35541625 391.91699294 C406.43280752 399.66623897 406.49709569 406.52448532 401.36601782 412.79219562 C393.90567077 419.96735509 384.94705565 419.07216686 375.16038513 419.02259827 C373.4728447 419.02864276 371.78530975 419.03642247 370.09778446 419.0457834 C365.4698963 419.06634229 360.84231804 419.06198027 356.21440446 419.05342221 C351.21974559 419.04848755 346.22516132 419.06651615 341.23052979 419.08149719 C331.44945281 419.10699428 321.66848564 419.11057826 311.88738102 419.10589667 C303.93759783 419.10233061 295.98784798 419.10582895 288.03806877 419.11434555 C286.90662845 419.11553593 285.77518813 419.11672631 284.60946174 419.11795276 C282.31095258 419.12037625 280.01244344 419.12280452 277.71393429 419.12523751 C256.15947346 419.14698947 234.6050752 419.14266288 213.05061083 419.13046782 C193.3309817 419.12012757 173.61155009 419.1426451 153.89196003 419.18066426 C133.64295238 419.21940485 113.39403821 419.23593603 93.14499325 419.22841775 C81.77701659 419.22459142 70.40920811 419.22959122 59.04126167 419.25784683 C49.36443278 419.28165576 39.68787559 419.28450541 30.01104302 419.2602665 C25.07412117 419.24847604 20.13769652 419.24632463 15.20080757 419.2702713 C10.67975375 419.29194611 6.15961353 419.28583585 1.63860285 419.25774793 C0.00477657 419.252442 -1.6291208 419.25722529 -3.2628774 419.27321966 C-18.43479827 419.411421 -18.43479827 419.411421 -24.72552967 414.2152319 C-31.73433733 407.08733559 -30.98881715 399.48242548 -30.9500885 390.02796936 C-30.95811547 388.43203508 -30.96788155 386.83610877 -30.9792338 385.24019468 C-31.0053084 380.8609006 -31.00656078 376.48189833 -31.00370181 372.10254049 C-31.0049318 367.37710249 -31.02910091 362.65177423 -31.050354 357.9263916 C-31.08828535 348.67125542 -31.10480617 339.41619883 -31.11386883 330.16099407 C-31.12508341 319.38224331 -31.15624135 308.60357788 -31.18792254 297.82487123 C-31.24365509 278.59102227 -31.27939581 259.35718646 -31.30471802 240.12327576 C-31.32928848 221.4620735 -31.37070863 202.80100264 -31.42971802 184.13987732 C-31.49395383 163.81962292 -31.54861441 143.49938463 -31.58683306 123.1790632 C-31.59092382 121.011698 -31.59502044 118.8443328 -31.599123 116.67696762 C-31.6011293 115.61058827 -31.60313559 114.54420892 -31.60520269 113.44551504 C-31.6199413 105.93353721 -31.64133858 98.42159516 -31.66517448 90.90964127 C-31.69397504 81.75256308 -31.71177328 72.59554015 -31.7156459 63.43841626 C-31.71787331 58.76692795 -31.72488201 54.09557991 -31.74499321 49.42413139 C-31.76326406 45.1456988 -31.76751641 40.86748723 -31.76069719 36.58902316 C-31.76065672 35.04331328 -31.76567347 33.49759302 -31.77632903 31.95191987 C-31.83642245 22.74380806 -31.55943891 14.74873831 -26.72341919 6.68870544 C-18.88633904 -0.72474876 -10.12495681 -0.06459009 0 0 Z M-9.81709385 24.33981228 C-12.67063075 30.10600802 -11.95711259 36.809569 -11.91212463 43.08349609 C-11.91601942 44.58256922 -11.92166129 46.08163865 -11.92889553 47.58069938 C-11.94364259 51.69220341 -11.93347355 55.80332414 -11.91915882 59.91481578 C-11.90804872 64.35181422 -11.91999171 68.78875891 -11.92900085 73.22575378 C-11.94293472 81.91443883 -11.93537622 90.60297856 -11.92032527 99.29165668 C-11.9034673 109.40844494 -11.90667514 119.52519698 -11.91041935 129.64199495 C-11.91629812 147.69136728 -11.90212527 165.74066985 -11.87747192 183.7900238 C-11.85354755 201.30762852 -11.84646903 218.82514005 -11.85696411 236.34275818 C-11.8683707 255.41598803 -11.87030686 274.48917477 -11.85586601 293.5624041 C-11.85434016 295.59575045 -11.85281981 297.6290968 -11.85130501 299.66244316 C-11.85054719 300.662906 -11.84978938 301.66336884 -11.8490086 302.69414874 C-11.84426405 309.74765965 -11.8461184 316.80115132 -11.85037041 323.85466194 C-11.85529455 332.44861867 -11.84932384 341.04248725 -11.82947611 349.63642377 C-11.81959756 354.02196015 -11.81450509 358.40736224 -11.82236862 362.79290581 C-11.82941825 366.80661005 -11.82263774 370.82004316 -11.80476499 374.83371162 C-11.80071585 376.28648803 -11.80172819 377.7392891 -11.80828386 379.19205637 C-11.81642898 381.16581766 -11.80433095 383.13963147 -11.79123592 385.11336613 C-11.79020679 386.21000114 -11.78917766 387.30663614 -11.78811735 388.43650252 C-11.19222869 393.27804715 -9.47392765 396.51792262 -5.91091919 399.81370544 C-1.90164812 402.51996342 1.12895393 402.62749092 5.86044788 402.63263321 C6.50200546 402.63468584 7.14356304 402.63673848 7.80456176 402.63885331 C9.96898532 402.64453839 12.13334554 402.64306421 14.29777527 402.64164734 C15.85938836 402.64423011 17.4210008 402.64724302 18.98261231 402.65065074 C23.28545037 402.6587343 27.58827175 402.66051106 31.8911165 402.66124821 C36.52721822 402.6630964 41.16331125 402.67064252 45.79940796 402.67738342 C55.94187051 402.69097666 66.08432911 402.69699294 76.22679925 402.70139408 C82.55688769 402.7041547 88.88697459 402.7083917 95.217062 402.71289825 C112.7350381 402.72509196 130.25301298 402.73539124 147.77099323 402.73877335 C149.45340813 402.7391027 149.45340813 402.7391027 151.1698112 402.7394387 C152.85630355 402.73976611 152.85630355 402.73976611 154.57686645 402.74010015 C156.85527059 402.74054362 159.13367472 402.74099018 161.41207886 402.74143982 C163.1073378 402.74177196 163.1073378 402.74177196 164.83684441 402.74211082 C183.15552137 402.74606003 201.47415859 402.76351735 219.79282019 402.78679934 C238.589572 402.81049662 257.38630385 402.82297445 276.18307084 402.82414126 C286.7411164 402.82505891 297.29911017 402.83083383 307.85714149 402.84896088 C316.84643438 402.86433993 325.83565947 402.86949531 334.82496301 402.86122277 C339.41300697 402.85730854 344.00091431 402.85828349 348.58894157 402.87228012 C352.78782557 402.88497269 356.98646962 402.8838626 361.18535306 402.87168941 C362.70555078 402.86972433 364.22576523 402.87284809 365.74593941 402.88153377 C367.81098192 402.89258699 369.87517172 402.88516668 371.94019032 402.87314224 C373.66130157 402.87403787 373.66130157 402.87403787 375.41718274 402.8749516 C380.32222713 402.29698804 383.56276955 400.61073113 386.90158081 397.00120544 C389.55504497 393.07014743 389.71574782 390.11898377 389.72330189 385.48250961 C389.72998865 383.58331634 389.72998865 383.58331634 389.73681051 381.64575553 C389.73672121 380.23272434 389.73653135 378.81969315 389.73625183 377.40666199 C389.73955038 375.91175816 389.74327593 374.41685523 389.74739331 372.92195344 C389.75742231 368.80347314 389.76113154 364.68500742 389.76378262 360.56651664 C389.76768297 356.1287599 389.77726144 351.69101474 389.78599548 347.25326538 C389.80576676 336.53136658 389.81582661 325.80946682 389.82472327 315.08755434 C389.82910479 310.04072723 389.83447192 304.99390117 389.83971214 299.94707489 C389.85672453 283.17456149 389.87121953 266.40204875 389.87846088 249.62952805 C389.88037083 245.2760442 389.88229116 240.92256036 389.88424683 236.56907654 C389.88473057 235.48701605 389.88521431 234.40495557 389.88571271 233.29010537 C389.89401614 215.7545394 389.9193583 198.21904158 389.9518275 180.68350539 C389.98487743 162.68792775 390.00290774 144.69238478 390.00610512 126.69677663 C390.00827206 116.58972146 390.01704757 106.48276568 390.0425663 96.37574005 C390.06424501 87.76964068 390.07233765 79.16366486 390.06259952 70.55754128 C390.05804669 66.16577877 390.05999794 61.7742713 390.07936096 57.38254356 C390.09693541 53.36179885 390.09604175 49.34149632 390.08046367 45.32074729 C390.07807888 43.86647712 390.08245625 42.41217679 390.09429232 40.95795283 C390.35816044 30.43484526 390.35816044 30.43484526 385.58908081 21.50120544 C379.18537951 16.00124788 371.41167036 16.94206323 363.40609741 16.99327087 C361.84173963 16.98865997 360.27738619 16.98230577 358.71304178 16.9743619 C354.42105683 16.95767142 350.12942787 16.9659136 345.83744168 16.97830677 C341.2061429 16.9873561 336.57490539 16.97338811 331.94361877 16.96238708 C322.8736016 16.94459604 313.8037168 16.94844447 304.73369443 16.96003765 C297.36262829 16.96906938 289.99159926 16.97029709 282.62052917 16.96594238 C281.04719054 16.96502298 281.04719054 16.96502298 279.4420673 16.96408501 C277.31129514 16.96280612 275.180523 16.96150926 273.04975086 16.96019465 C253.0671856 16.94878713 233.08469372 16.96190526 213.10214049 16.98339611 C195.95435858 17.00126724 178.80668498 16.99816318 161.65890503 16.97972107 C141.74808452 16.9583174 121.83732834 16.94988579 101.92649794 16.96217012 C99.80354278 16.96344433 97.68058762 16.96470181 95.55763245 16.96594238 C94.51308455 16.96655948 93.46853666 16.96717659 92.3923358 16.96781239 C85.02970455 16.9712668 77.66711408 16.96543498 70.30448914 16.95602417 C61.33248981 16.94480842 52.36063048 16.94783535 43.3886472 16.96914715 C38.81055059 16.97966324 34.23268743 16.98376985 29.65459251 16.97055054 C25.46375089 16.95863239 21.27335914 16.9651795 17.08255833 16.98646075 C15.56650684 16.99092927 14.05041734 16.98865486 12.53439027 16.97895759 C-0.12022917 16.83815078 -0.12022917 16.83815078 -9.81709385 24.33981228 Z " transform="translate(54.410919189453125,21.498794555664063)" style="fill: #000000;"/><path d="M0 0 C2.64 0 5.28 0 8 0 C8 20.79 8 41.58 8 63 C44.96 63 81.92 63 120 63 C120 98.64 120 134.28 120 171 C68.52 171.495 68.52 171.495 16 172 C23.651875 179.64027344 31.30375 187.28054688 39.1875 195.15234375 C44.01850375 199.97824121 48.84938136 204.80426384 53.6796875 209.63085938 C61.35563471 217.30086281 69.03210921 224.97033349 76.71191406 232.63647461 C82.30397575 238.21859174 87.89429738 243.8024445 93.48250675 249.38841826 C96.44346483 252.34806884 99.40530698 255.30682269 102.36923218 258.26350212 C105.15545486 261.04296818 107.93935577 263.82473808 110.72144699 266.60833931 C111.74615588 267.63277171 112.77173042 268.65633901 113.79820633 269.67900085 C115.19303637 271.06889929 116.58453625 272.46213737 117.97583008 273.85557556 C118.75751053 274.63633422 119.53919098 275.41709288 120.34455872 276.22151089 C122 278 122 278 122 279 C50.39 279 -21.22 279 -95 279 C-95 276.36 -95 273.72 -95 271 C-63.65 271 -32.3 271 0 271 C0 238 0 205 0 171 C-31.35 171 -62.7 171 -95 171 C-95 168.36 -95 165.72 -95 163 C-63.65 163 -32.3 163 0 163 C0 132.64 0 102.28 0 71 C-30.69 71 -61.38 71 -93 71 C-93 68.36 -93 65.72 -93 63 C-62.31 63 -31.62 63 0 63 C0 42.21 0 21.42 0 0 Z " transform="translate(227,71)" style="fill: #FEFEFE;"/><path d="M0 0 C1.68555161 -0.00389491 3.37109992 -0.00953688 5.05664051 -0.0167709 C9.67894145 -0.03151595 14.30090139 -0.02134998 18.92319131 -0.00703418 C23.91164078 0.00407692 28.90004247 -0.00786738 33.88848877 -0.01687622 C43.65654505 -0.03080911 53.42447206 -0.0232524 63.19252218 -0.00820064 C74.56544133 0.00865736 85.93832826 0.00544952 97.31125604 0.00170528 C117.60066778 -0.00417325 137.89001745 0.00999876 158.17941284 0.03465271 C177.87279587 0.05857978 197.56609601 0.06565449 217.25949097 0.05516052 C238.70116252 0.04375544 260.14279573 0.0418157 281.58446681 0.05625862 C283.87000012 0.05778447 286.15553343 0.05930483 288.44106674 0.06081963 C290.12789596 0.06195635 290.12789596 0.06195635 291.84880254 0.06311603 C299.7789695 0.06786153 307.70911935 0.06600558 315.63928604 0.06175423 C325.30004048 0.0568315 334.96071648 0.06279454 344.62145294 0.08264852 C349.55178829 0.09253084 354.48200413 0.09761544 359.41234589 0.08975601 C363.92376278 0.08271141 368.43493825 0.08947519 372.94632326 0.10735964 C374.58009203 0.11141201 376.21388272 0.11039108 377.84764339 0.10384078 C380.06580304 0.09570715 382.2831459 0.10598179 384.50125313 0.12088871 C385.73404538 0.12191784 386.96683764 0.12294697 388.23698723 0.12400728 C394.51904677 0.83090321 398.53603295 3.79090658 402.58908081 8.50120544 C405.21646863 12.94676179 405.9657793 16.1783249 405.97498417 21.32074451 C405.98024328 21.98512532 405.98550239 22.64950613 405.99092087 23.33401969 C406.00486659 25.55821632 405.99751412 27.78182162 405.99021912 30.00604248 C405.99582482 31.61760839 406.00272749 33.22917023 406.01081508 34.8407256 C406.02917156 39.26785616 406.02876808 43.69481679 406.02523196 48.12197673 C406.02462 52.89716583 406.0411756 57.67230031 406.05540466 62.44746399 C406.08032717 71.80233836 406.08856931 81.15715601 406.0902418 90.5120608 C406.09166711 98.1157777 406.09783053 105.71947589 406.10734367 113.32318687 C406.13376402 134.87913012 406.14760166 156.43502856 406.14535225 177.99098811 C406.14523238 179.15314645 406.14511251 180.31530479 406.14498901 181.51268005 C406.14486637 182.67625663 406.14474373 183.8398332 406.14461737 185.03866967 C406.14339788 203.89837627 406.17210899 222.75790322 406.21440411 241.61755786 C406.2574856 260.98056658 406.27821522 280.34348766 406.27562279 299.70654553 C406.27462654 310.57824774 406.28288208 321.44976161 406.31515694 332.32142067 C406.34245918 341.57741762 406.34900854 350.83314084 406.32862867 360.0891606 C406.31882624 364.8114053 406.31868578 369.5331247 406.34468842 374.2553196 C406.36825887 378.5803114 406.36401736 382.90436068 406.33783602 387.22932925 C406.33322531 388.791888 406.33870176 390.35451679 406.35541625 391.91699294 C406.43280752 399.66623897 406.49709569 406.52448532 401.36601782 412.79219562 C393.90567077 419.96735509 384.94705565 419.07216686 375.16038513 419.02259827 C373.4728447 419.02864276 371.78530975 419.03642247 370.09778446 419.0457834 C365.4698963 419.06634229 360.84231804 419.06198027 356.21440446 419.05342221 C351.21974559 419.04848755 346.22516132 419.06651615 341.23052979 419.08149719 C331.44945281 419.10699428 321.66848564 419.11057826 311.88738102 419.10589667 C303.93759783 419.10233061 295.98784798 419.10582895 288.03806877 419.11434555 C286.90662845 419.11553593 285.77518813 419.11672631 284.60946174 419.11795276 C282.31095258 419.12037625 280.01244344 419.12280452 277.71393429 419.12523751 C256.15947346 419.14698947 234.6050752 419.14266288 213.05061083 419.13046782 C193.3309817 419.12012757 173.61155009 419.1426451 153.89196003 419.18066426 C133.64295238 419.21940485 113.39403821 419.23593603 93.14499325 419.22841775 C81.77701659 419.22459142 70.40920811 419.22959122 59.04126167 419.25784683 C49.36443278 419.28165576 39.68787559 419.28450541 30.01104302 419.2602665 C25.07412117 419.24847604 20.13769652 419.24632463 15.20080757 419.2702713 C10.67975375 419.29194611 6.15961353 419.28583585 1.63860285 419.25774793 C0.00477657 419.252442 -1.6291208 419.25722529 -3.2628774 419.27321966 C-18.43479827 419.411421 -18.43479827 419.411421 -24.72552967 414.2152319 C-31.73433733 407.08733559 -30.98881715 399.48242548 -30.9500885 390.02796936 C-30.95811547 388.43203508 -30.96788155 386.83610877 -30.9792338 385.24019468 C-31.0053084 380.8609006 -31.00656078 376.48189833 -31.00370181 372.10254049 C-31.0049318 367.37710249 -31.02910091 362.65177423 -31.050354 357.9263916 C-31.08828535 348.67125542 -31.10480617 339.41619883 -31.11386883 330.16099407 C-31.12508341 319.38224331 -31.15624135 308.60357788 -31.18792254 297.82487123 C-31.24365509 278.59102227 -31.27939581 259.35718646 -31.30471802 240.12327576 C-31.32928848 221.4620735 -31.37070863 202.80100264 -31.42971802 184.13987732 C-31.49395383 163.81962292 -31.54861441 143.49938463 -31.58683306 123.1790632 C-31.59092382 121.011698 -31.59502044 118.8443328 -31.599123 116.67696762 C-31.6011293 115.61058827 -31.60313559 114.54420892 -31.60520269 113.44551504 C-31.6199413 105.93353721 -31.64133858 98.42159516 -31.66517448 90.90964127 C-31.69397504 81.75256308 -31.71177328 72.59554015 -31.7156459 63.43841626 C-31.71787331 58.76692795 -31.72488201 54.09557991 -31.74499321 49.42413139 C-31.76326406 45.1456988 -31.76751641 40.86748723 -31.76069719 36.58902316 C-31.76065672 35.04331328 -31.76567347 33.49759302 -31.77632903 31.95191987 C-31.83642245 22.74380806 -31.55943891 14.74873831 -26.72341919 6.68870544 C-18.88633904 -0.72474876 -10.12495681 -0.06459009 0 0 Z M-19.15310669 10.83323669 C-23.24427304 16.17996789 -23.53549477 20.41674788 -23.53955364 27.00025749 C-23.54130668 27.64213479 -23.54305972 28.28401209 -23.54486588 28.94534022 C-23.54952234 31.0988204 -23.54706129 33.25223295 -23.54463196 35.40571594 C-23.54650011 36.96421747 -23.54880082 38.52271853 -23.55149728 40.08121884 C-23.55762117 44.36620804 -23.55748099 48.65117776 -23.55630291 52.93617034 C-23.55609905 57.55657614 -23.5616162 62.17697566 -23.56636047 66.79737854 C-23.57467068 75.8502493 -23.57741548 84.90311354 -23.57797285 93.9559878 C-23.57844781 101.31326634 -23.58050155 108.67054273 -23.58367348 116.02782059 C-23.59248085 136.88040703 -23.59709269 157.73298832 -23.596343 178.58557664 C-23.59630305 179.70999489 -23.59626309 180.83441313 -23.59622192 181.99290466 C-23.59618104 183.11869337 -23.59614016 184.24448207 -23.59609804 185.40438558 C-23.59569149 203.6543518 -23.60526321 221.90429739 -23.61936029 240.15425764 C-23.63371604 258.88666677 -23.64063092 277.61906583 -23.63976651 296.3514806 C-23.63943428 306.8709501 -23.64219294 317.39039797 -23.65294456 327.90986252 C-23.662039 336.86539891 -23.6642335 345.82090387 -23.65743514 354.77644287 C-23.65416467 359.34636814 -23.65413226 363.91623308 -23.66278839 368.48615265 C-23.67063097 372.66954586 -23.66924497 376.85283067 -23.66050426 381.03622116 C-23.65896432 382.54964567 -23.66080396 384.06307817 -23.66636433 385.57649325 C-23.67342521 387.63461688 -23.66813045 389.69236031 -23.65980816 391.75047112 C-23.66002553 392.89337699 -23.66024289 394.03628286 -23.66046685 395.21382225 C-23.33624849 399.48487003 -22.74185361 403.80521473 -20.04373169 407.24339294 C-14.72981572 411.23571323 -11.29946673 411.62599046 -4.73818493 411.6298399 C-3.7289811 411.63246945 -3.7289811 411.63246945 -2.69938931 411.63515213 C-0.43468904 411.63982083 1.82994728 411.63734439 4.09465027 411.63491821 C5.73065992 411.63678575 7.36666913 411.63908622 9.00267762 411.64178354 C13.50655581 411.64791508 18.01041548 411.64776635 22.51429689 411.64658916 C27.36853281 411.64638549 32.22276272 411.65190065 37.07699585 411.65664673 C46.59055167 411.66496133 56.10410129 411.66770194 65.61766044 411.66825911 C73.34920014 411.6687339 81.08073779 411.67078679 88.81227684 411.67395973 C110.72218442 411.68276862 132.63208709 411.68737876 154.54199646 411.68662926 C156.31460131 411.68656932 156.31460131 411.68656932 158.12301636 411.68650818 C159.30619224 411.6864673 160.48936813 411.68642642 161.70839783 411.6863843 C180.88637374 411.68597779 200.06433002 411.69554791 219.24230025 411.70964655 C238.92388806 411.72400149 258.6054663 411.73091721 278.28705949 411.73005277 C289.34086478 411.72972049 300.3946495 411.73248118 311.44845009 411.74323082 C320.85965289 411.75232424 330.27082579 411.75452063 339.68203107 411.7477214 C344.48485397 411.74445029 349.28761946 411.74442077 354.09043694 411.75307465 C358.4866669 411.76091453 362.88279368 411.75953399 367.27902105 411.75079051 C368.86986387 411.74924997 370.4607143 411.75109247 372.05154816 411.75665059 C374.21409804 411.76370607 376.37628552 411.75842085 378.53882313 411.75009441 C380.34057128 411.75042047 380.34057128 411.75042047 382.17871839 411.7507531 C386.49071957 411.43522951 390.82683761 410.84857076 394.33126831 408.16917419 C398.42573902 402.81812455 398.71333948 398.57544313 398.72050858 391.98653603 C398.72256121 391.34297035 398.72461384 390.69940468 398.72672868 390.03633702 C398.73238881 387.87711574 398.73094266 385.71795846 398.72952271 383.55873108 C398.73210689 381.99610457 398.7351202 380.43347872 398.73852611 378.87085378 C398.74659279 374.57446503 398.74838549 370.27809299 398.74912357 365.98169756 C398.75097466 361.34902022 398.75852218 356.71635153 398.76525879 352.0836792 C398.77883934 341.95366424 398.78486613 331.82365324 398.78926945 321.6936307 C398.79203181 315.36988904 398.79626911 309.04614892 398.80077362 302.72240829 C398.81296493 285.21722065 398.82326516 267.71203422 398.82664871 250.20684242 C398.82686828 249.0865543 398.82708784 247.96626617 398.82731406 246.81202992 C398.82753234 245.68905335 398.82775062 244.56607678 398.82797551 243.40907061 C398.82841898 241.13346712 398.82886554 238.85786362 398.82931519 236.58226013 C398.82953662 235.45348081 398.82975805 234.3247015 398.82998618 233.16171674 C398.83393591 214.86324206 398.85139587 196.56480715 398.87467471 178.26634784 C398.89837627 159.48421805 398.91084998 140.70210823 398.91201663 121.91996324 C398.91293396 111.37253488 398.91870095 100.82515838 398.93683624 90.27774429 C398.95222095 81.29840986 398.95736726 72.31914333 398.94909814 63.33979823 C398.94518613 58.75769219 398.94614816 54.17572294 398.96015549 49.59363365 C398.97286101 45.39909476 398.97172647 41.20479593 398.95956478 37.01025753 C398.95760198 35.49279356 398.96071302 33.97531278 398.96940914 32.45787247 C399.19021948 22.0557288 399.19021948 22.0557288 395.58908081 12.50120544 C390.52062612 7.43275075 385.71405465 7.37663373 378.80891609 7.37257099 C378.13664807 7.37081795 377.46438004 7.36906492 376.77174026 7.36725876 C374.51487982 7.36259996 372.25808383 7.36506395 370.0012207 7.36749268 C368.3684728 7.36562465 366.73572534 7.36332397 365.10297859 7.36062735 C360.6127613 7.35450201 356.12256261 7.35464381 351.6323421 7.35582173 C346.79107548 7.35602555 341.94981486 7.35050879 337.10855103 7.34576416 C327.62253789 7.33745316 318.13653097 7.33470912 308.6505145 7.33415178 C300.94140528 7.33367686 293.23229811 7.33162331 285.52318954 7.32845116 C263.67452764 7.31964357 241.82587065 7.31503198 219.97720696 7.31578163 C218.79902279 7.31582159 217.62083862 7.31586154 216.4069519 7.31590271 C215.22733214 7.31594359 214.04771237 7.31598447 212.83234654 7.31602659 C193.70939966 7.31643315 174.58647246 7.30686132 155.46353127 7.29276434 C135.83615239 7.27840947 116.20878311 7.27149366 96.58139884 7.27235812 C85.55890756 7.27269038 74.53643691 7.26993041 63.51395035 7.25918007 C54.13022011 7.25008678 44.74651987 7.24789018 35.36278714 7.25468949 C30.5741341 7.25796055 25.78553863 7.25799028 20.99689102 7.24933624 C16.61365382 7.24149623 12.2305201 7.24287702 7.84728549 7.25162037 C6.26118316 7.25316088 4.6750732 7.25131856 3.08897986 7.2457603 C0.93283725 7.23870452 -1.2229419 7.24399027 -3.37907219 7.25231647 C-4.57665779 7.25209911 -5.77424339 7.25188174 -7.00811946 7.25165778 C-11.31715321 7.56766501 -15.65124577 8.15580491 -19.15310669 10.83323669 Z " transform="translate(54.410919189453125,21.498794555664063)" style="fill: #FEFEFE;"/><path d="M0 0 C34.32 0 68.64 0 104 0 C104 30.36 104 60.72 104 92 C69.68 92 35.36 92 0 92 C0 61.64 0 31.28 0 0 Z " transform="translate(235,142)" style="fill: #000000;"/><path d="M0 0 C0.64326608 -0.00350607 1.28653215 -0.00701215 1.94929114 -0.01062447 C4.10757002 -0.01993792 6.26557903 -0.0150154 8.42386913 -0.01015663 C9.98578444 -0.01389292 11.54769788 -0.01849436 13.10960835 -0.02388728 C17.40408458 -0.0361353 21.69848301 -0.03585469 25.99297273 -0.03349853 C30.62363189 -0.03309081 35.25426595 -0.04412514 39.88491344 -0.05361366 C48.95817567 -0.0702345 58.03141191 -0.0757237 67.10468809 -0.07683842 C74.47912333 -0.07778838 81.85354999 -0.08189606 89.22798252 -0.08823967 C110.13084409 -0.10585501 131.03368512 -0.11507808 151.93655417 -0.11357872 C153.06369669 -0.11349881 154.19083921 -0.1134189 155.35213757 -0.11333656 C156.48065457 -0.1132548 157.60917158 -0.11317304 158.77188607 -0.1130888 C177.06323566 -0.11227581 195.35450293 -0.131416 213.6458287 -0.1596133 C232.42231755 -0.18833036 251.19876623 -0.20215424 269.9752776 -0.20042574 C280.51883875 -0.19976144 291.0623136 -0.20527157 301.60585499 -0.22678185 C310.58261823 -0.24497814 319.55925605 -0.24935374 328.53602973 -0.235763 C333.11627107 -0.22922552 337.69627166 -0.22914424 342.27649021 -0.2464695 C346.4705321 -0.26217086 350.66414176 -0.2593668 354.85817292 -0.24190123 C356.37430842 -0.23882485 357.89047595 -0.2424878 359.40657369 -0.25362138 C367.3225862 -0.30789693 373.71124248 -0.24793062 380.48812389 4.25726891 C385.26928022 9.16424514 386.73618268 13.76993069 386.74818611 20.53488445 C386.7587845 22.44435091 386.7587845 22.44435091 386.76959699 24.39239246 C386.7673457 25.80278066 386.76489921 27.21316857 386.76227856 28.62355614 C386.76673116 30.12359992 386.77204527 31.62364136 386.77814728 33.12367934 C386.79233497 37.24712867 386.79399043 41.37050265 386.79355037 45.4939729 C386.79519788 49.94058488 386.8082631 54.38716576 386.81974316 58.83376122 C386.84259655 68.55683225 386.85051399 78.27988146 386.8555696 88.0029757 C386.85882593 94.07345292 386.86534799 100.1439238 386.87257099 106.21439743 C386.89213661 123.02044566 386.90854129 139.82648798 386.91144753 156.63254833 C386.91163509 157.70807073 386.91182266 158.78359312 386.91201592 159.8917071 C386.91238217 162.07206484 386.91274587 164.25242257 386.91310703 166.4327803 C386.91328984 167.51511789 386.91347265 168.59745548 386.913661 169.71259117 C386.91393183 171.33807785 386.91393183 171.33807785 386.91420812 172.99640264 C386.91775068 190.56028764 386.94477838 208.1240501 386.98215889 225.68789259 C387.02022608 243.71857396 387.03960488 261.74919449 387.03990704 279.77991694 C387.04049193 289.90431884 387.04900467 300.02857454 387.0779047 310.15293884 C387.10239721 318.77289324 387.10971582 327.3926481 387.09465718 336.01262788 C387.08747979 340.41065345 387.08838129 344.80828483 387.11106777 349.2062664 C387.13164465 353.23385766 387.12906999 357.26075134 387.10819293 361.28833493 C387.10469553 362.74390886 387.10961877 364.19953298 387.12389737 365.65504108 C387.197163 373.63918766 387.17534239 380.18906739 381.48812389 386.25726891 C376.32384676 390.28540507 372.66216121 391.38144054 366.20393276 391.39148998 C365.5609864 391.39384221 364.91804005 391.39619444 364.25561047 391.39861795 C362.08645508 391.4053111 359.91735955 391.40484964 357.74819469 391.40443993 C356.18316931 391.40773835 354.61814477 391.41146387 353.05312133 391.41558141 C348.74081434 391.42561186 344.42852127 391.42931987 340.11620426 391.43197072 C335.4698569 391.43587063 330.8235206 391.44544913 326.17718029 391.45418358 C314.95101286 391.47395606 303.72484451 391.48401485 292.49866402 391.49291137 C287.21474182 391.49729268 281.93082063 391.50265987 276.64689922 391.50790024 C259.08689234 391.52491272 241.52688608 391.5394078 223.96687222 391.54664898 C219.40885193 391.54855893 214.85083166 391.55047926 210.29281139 391.55243492 C208.59345999 391.55316053 208.59345999 391.55316053 206.85977826 391.5539008 C188.49973163 391.56220448 170.13975009 391.58754701 151.7797319 391.6200156 C132.93890505 391.65306344 114.09811131 391.67109565 95.25725532 391.67429322 C84.67512556 391.67646034 74.09309074 391.68523866 63.51098919 391.71075439 C54.5004856 391.73243025 45.49009999 391.74052715 36.47957328 391.73078761 C31.88123793 391.72623397 27.28314617 391.72819084 22.68484402 391.74754906 C18.47536268 391.76511757 14.26630377 391.76423463 10.05681834 391.74865177 C8.53390822 391.74626607 7.01096933 391.75064893 5.4881033 391.76248042 C-3.23756533 391.82607358 -9.49789441 391.75411348 -16.25406361 385.69476891 C-20.19556045 380.69314532 -20.63588388 377.38169168 -20.64609718 371.11831856 C-20.65055503 369.85081536 -20.65501287 368.58331216 -20.6596058 367.27739978 C-20.65951651 365.86799986 -20.65932666 364.45859995 -20.65904713 363.04920006 C-20.66234663 361.55414587 -20.66607238 360.05909258 -20.67018861 358.56404042 C-20.68020668 354.44975008 -20.68392508 350.33547433 -20.68657792 346.22117352 C-20.69048146 341.78614192 -20.70005967 337.35112187 -20.70879078 332.91609764 C-20.72855231 322.20351003 -20.73862037 311.49092148 -20.74751857 300.77832019 C-20.75190141 295.73461271 -20.75726818 290.69090628 -20.76250744 285.64719963 C-20.77951834 268.88322607 -20.79401331 252.11925316 -20.80125618 235.35527229 C-20.80316609 231.00505892 -20.80508642 226.65484554 -20.80704212 222.30463219 C-20.80752586 221.22339951 -20.8080096 220.14216684 -20.808508 219.02816954 C-20.81681134 201.50627574 -20.842154 183.98445014 -20.8746228 166.46258613 C-20.90767925 148.47714213 -20.9257036 130.4917328 -20.92890042 112.50625825 C-20.93106667 102.40645191 -20.93983238 92.30674506 -20.9653616 82.20696831 C-20.98704915 73.60714337 -20.99512854 65.0074421 -20.98539481 56.40759292 C-20.98084466 52.01974998 -20.98277787 47.63216231 -21.00215626 43.24435425 C-21.01974951 39.22606436 -21.01882165 35.2082167 -21.00325897 31.18992236 C-21.00087706 29.73768311 -21.00523671 28.28541354 -21.01708762 26.83322069 C-21.07785219 18.89433706 -20.93601611 12.98917751 -16.51187611 6.25726891 C-11.51886564 1.39228435 -6.87501769 0.00845871 0 0 Z M-15.91805077 10.09587574 C-18.77158766 15.86207148 -18.0580695 22.56563246 -18.01308155 28.83955956 C-18.01697634 30.33863268 -18.02261821 31.83770211 -18.02985245 33.33676285 C-18.04459951 37.44826687 -18.03443046 41.5593876 -18.02011573 45.67087924 C-18.00900563 50.10787768 -18.02094863 54.54482237 -18.02995777 58.98181725 C-18.04389163 67.67050229 -18.03633313 76.35904202 -18.02128219 85.04772014 C-18.00442422 95.1645084 -18.00763205 105.28126044 -18.01137627 115.39805841 C-18.01725504 133.44743074 -18.00308219 151.49673331 -17.97842884 169.54608727 C-17.95450447 187.06369199 -17.94742595 204.58120351 -17.95792103 222.09882164 C-17.96932761 241.17205149 -17.97126378 260.24523823 -17.95682293 279.31846756 C-17.95529708 281.35181391 -17.95377672 283.38516026 -17.95226192 285.41850662 C-17.95150411 286.41896946 -17.9507463 287.4194323 -17.94996552 288.4502122 C-17.94522097 295.50372311 -17.94707532 302.55721478 -17.95132732 309.6107254 C-17.95625147 318.20468213 -17.95028076 326.79855071 -17.93043303 335.39248724 C-17.92055447 339.77802361 -17.91546201 344.1634257 -17.92332554 348.54896927 C-17.93037517 352.56267351 -17.92359466 356.57610662 -17.90572191 360.58977508 C-17.90167277 362.04255149 -17.90268511 363.49535256 -17.90924077 364.94811983 C-17.9173859 366.92188112 -17.90528786 368.89569493 -17.89219284 370.86942959 C-17.89116371 371.9660646 -17.89013458 373.06269961 -17.88907427 374.19256598 C-17.2931856 379.03411061 -15.57488456 382.27398608 -12.01187611 385.56976891 C-8.00260503 388.27602688 -4.97200299 388.38355438 -0.24050903 388.38869667 C0.40104855 388.3907493 1.04260613 388.39280194 1.70360485 388.39491677 C3.8680284 388.40060185 6.03238862 388.39912767 8.19681835 388.3977108 C9.75843145 388.40029357 11.32004388 388.40330648 12.8816554 388.4067142 C17.18449345 388.41479776 21.48731483 388.41657453 25.79015958 388.41731167 C30.42626131 388.41915986 35.06235433 388.42670598 39.69845104 388.43344688 C49.84091359 388.44704012 59.98337219 388.4530564 70.12584233 388.45745754 C76.45593077 388.46021816 82.78601768 388.46445517 89.11610508 388.46896172 C106.63408118 388.48115542 124.15205606 388.4914547 141.67003632 388.49483681 C143.35245121 388.49516616 143.35245121 388.49516616 145.06885428 388.49550216 C146.75534663 388.49582958 146.75534663 388.49582958 148.47590953 388.49616361 C150.75431367 388.49660708 153.0327178 388.49705364 155.31112194 388.49750328 C157.00638089 388.49783543 157.00638089 388.49783543 158.73588749 388.49817428 C177.05456446 388.50212349 195.37320167 388.51958081 213.69186328 388.5428628 C232.48861508 388.56656008 251.28534693 388.57903791 270.08211392 388.58020473 C280.64015949 388.58112237 291.19815326 388.58689729 301.75618458 388.60502434 C310.74547747 388.62040339 319.73470256 388.62555877 328.72400609 388.61728624 C333.31205006 388.613372 337.89995739 388.61434695 342.48798466 388.62834358 C346.68686865 388.64103615 350.8855127 388.63992606 355.08439615 388.62775287 C356.60459387 388.62578779 358.12480832 388.62891155 359.64498249 388.63759723 C361.710025 388.64865045 363.7742148 388.64123015 365.8392334 388.6292057 C367.56034465 388.63010134 367.56034465 388.63010134 369.31622583 388.63101506 C374.22127022 388.05305151 377.46181264 386.36679459 380.80062389 382.75726891 C383.45408805 378.82621089 383.6147909 375.87504723 383.62234497 371.23857307 C383.62903174 369.3393798 383.62903174 369.3393798 383.63585359 367.40181899 C383.63576429 365.9887878 383.63557443 364.57575661 383.63529491 363.16272545 C383.63859347 361.66782163 383.64231902 360.17291869 383.64643639 358.6780169 C383.65646539 354.5595366 383.66017463 350.44107088 383.6628257 346.3225801 C383.66672605 341.88482336 383.67630452 337.4470782 383.68503857 333.00932884 C383.70480985 322.28743004 383.71486969 311.56553028 383.72376636 300.8436178 C383.72814787 295.79679069 383.73351501 290.74996463 383.73875523 285.70313835 C383.75576761 268.93062495 383.77026262 252.15811221 383.77750397 235.38559151 C383.77941392 231.03210766 383.78133424 226.67862382 383.78328991 222.32514 C383.78377365 221.24307951 383.78425739 220.16101903 383.78475579 219.04616883 C383.79305922 201.51060287 383.81840138 183.97510505 383.85087059 166.43956885 C383.88392051 148.44399121 383.90195083 130.44844824 383.90514821 112.45284009 C383.90731514 102.34578492 383.91609066 92.23882914 383.94160938 82.13180351 C383.9632881 73.52570415 383.97138073 64.91972832 383.9616426 56.31360474 C383.95708978 51.92184223 383.95904103 47.53033476 383.97840405 43.13860703 C383.9959785 39.11786231 383.99508483 35.09755978 383.97950675 31.07681075 C383.97712196 29.62254058 383.98149933 28.16824025 383.9933354 26.71401629 C384.25720353 16.19090872 384.25720353 16.19090872 379.48812389 7.25726891 C373.0844226 1.75731135 365.31071344 2.69812669 357.3051405 2.74933434 C355.74078272 2.74472343 354.17642927 2.73836923 352.61208487 2.73042536 C348.32009992 2.71373488 344.02847096 2.72197706 339.73648477 2.73437023 C335.10518599 2.74341956 330.47394847 2.72945157 325.84266186 2.71845055 C316.77264469 2.7006595 307.70275988 2.70450793 298.63273752 2.71610111 C291.26167138 2.72513284 283.89064234 2.72636055 276.51957226 2.72200584 C274.94623363 2.72108645 274.94623363 2.72108645 273.34111038 2.72014847 C271.21033822 2.71886958 269.07956608 2.71757273 266.94879395 2.71625811 C246.96622868 2.70485059 226.9837368 2.71796872 207.00118357 2.73945957 C189.85340166 2.7573307 172.70572807 2.75422664 155.55794811 2.73578453 C135.6471276 2.71438086 115.73637143 2.70594925 95.82554102 2.71823359 C93.70258587 2.71950779 91.5796307 2.72076527 89.45667553 2.72200584 C88.41212764 2.72262295 87.36757974 2.72324005 86.29137889 2.72387585 C78.92874763 2.72733026 71.56615716 2.72149844 64.20353222 2.71208763 C55.23153289 2.70087188 46.25967356 2.70389881 37.28769028 2.72521061 C32.70959367 2.7357267 28.13173051 2.73983332 23.5536356 2.726614 C19.36279397 2.71469585 15.17240222 2.72124297 10.98160142 2.74252421 C9.46554992 2.74699273 7.94946042 2.74471832 6.43343335 2.73502105 C-6.22118609 2.59421424 -6.22118609 2.59421424 -15.91805077 10.09587574 Z " transform="translate(60.51187610626221,35.74273109436035)" style="fill: #FEFEFE;"/><path d="M0 0 C7.87529997 6.75025712 7.87529997 6.75025712 11.18260193 10.05561829 C11.93267014 10.80286667 12.68273834 11.55011505 13.45553589 12.32000732 C14.25323395 13.11972961 15.05093201 13.9194519 15.87280273 14.7434082 C17.16180733 16.02978432 17.16180733 16.02978432 18.47685242 17.34214783 C20.81295807 19.67462785 23.14681924 22.00930757 25.4795177 24.34519219 C27.92568342 26.79390321 30.37430328 29.24015827 32.82252502 31.68681335 C36.92539264 35.78786766 41.02616007 39.89101313 45.12573242 43.99536133 C49.86993348 48.7450252 54.61775563 53.49104656 59.36743206 58.23523456 C63.45005741 62.31333079 67.53074208 66.39336125 71.60979229 70.47503346 C74.04439856 72.91120083 76.47968055 75.34668238 78.91671562 77.7804203 C81.62498923 80.48528445 84.32918745 83.19419967 87.03295898 85.90356445 C87.84482666 86.7134079 88.65669434 87.52325134 89.49316406 88.3576355 C90.2234935 89.09078476 90.95382294 89.82393402 91.70628357 90.57929993 C92.66605937 91.53964126 92.66605937 91.53964126 93.64522457 92.51938343 C95 94 95 94 95 95 C63.65 95 32.3 95 0 95 C0 63.65 0 32.3 0 0 Z " transform="translate(235,247)" style="fill: #000000;"/><path d="M0 0 C1.98 0 3.96 0 6 0 C7.32 3.3 8.64 6.6 10 10 C11.65 6.7 13.3 3.4 15 0 C16.65 0 18.3 0 20 0 C20 5.61 20 11.22 20 17 C19.01 17 18.02 17 17 17 C16.505 12.05 16.505 12.05 16 7 C14.68 10.3 13.36 13.6 12 17 C10.68 17 9.36 17 8 17 C6.68 13.37 5.36 9.74 4 6 C3.67 9.63 3.34 13.26 3 17 C2.01 17 1.02 17 0 17 C0 11.39 0 5.78 0 0 Z " transform="translate(387,384)" style="fill: #F7F9EC;"/><path d="M0 0 C1.65 0 3.3 0 5 0 C5.18175781 0.78246094 5.36351562 1.56492187 5.55078125 2.37109375 C5.80214844 3.38300781 6.05351562 4.39492188 6.3125 5.4375 C6.55613281 6.44683594 6.79976563 7.45617187 7.05078125 8.49609375 C7.36402344 9.32238281 7.67726563 10.14867187 8 11 C8.99 11.33 9.98 11.66 11 12 C11 13.65 11 15.3 11 17 C10.01 17 9.02 17 8 17 C6.68 13.37 5.36 9.74 4 6 C3.67 9.63 3.34 13.26 3 17 C2.01 17 1.02 17 0 17 C0 11.39 0 5.78 0 0 Z " transform="translate(387,384)" style="fill: #EDF7FA;"/><path d="M0 0 C4.29 0 8.58 0 13 0 C13 0.99 13 1.98 13 3 C11.35 3 9.7 3 8 3 C8 7.62 8 12.24 8 17 C7.01 17 6.02 17 5 17 C5 12.38 5 7.76 5 3 C3.35 3 1.7 3 0 3 C0 2.01 0 1.02 0 0 Z " transform="translate(372,384)" style="fill: #F5FCF8;"/><path d="M0 0 C2.09782787 2.09782787 2.6509396 3.3799207 3.625 6.125 C3.88539063 6.84945313 4.14578125 7.57390625 4.4140625 8.3203125 C4.70410156 9.15175781 4.70410156 9.15175781 5 10 C5.99 10 6.98 10 8 10 C8 9.34 8 8.68 8 8 C8.66 8.33 9.32 8.66 10 9 C9.01 11.64 8.02 14.28 7 17 C6.67 17 6.34 17 6 17 C6 15.35 6 13.7 6 12 C5.38125 11.95875 4.7625 11.9175 4.125 11.875 C2 11 2 11 0.75 8.25 C0.07881286 5.34152238 -0.17433648 2.96372016 0 0 Z " transform="translate(392,384)" style="fill: #E4DACB;"/><path d="M0 0 C0.99 0.33 1.98 0.66 3 1 C1.68 4.3 0.36 7.6 -1 11 C-3 10 -3 10 -3.8515625 7.93359375 C-4.10679687 7.10988281 -4.36203125 6.28617187 -4.625 5.4375 C-4.88539063 4.61121094 -5.14578125 3.78492188 -5.4140625 2.93359375 C-5.60742188 2.29550781 -5.80078125 1.65742188 -6 1 C-4.02 1.66 -2.04 2.32 0 3 C0 2.01 0 1.02 0 0 Z " transform="translate(399,384)" style="fill: #15141D;"/><path d="M0 0 C2.50298434 2.93828597 3.46930939 5.17902761 4 9 C4.99 9.33 5.98 9.66 7 10 C7 11.65 7 13.3 7 15 C6.01 15 5.02 15 4 15 C2.35 10.38 0.7 5.76 -1 1 C-0.67 0.67 -0.34 0.34 0 0 Z " transform="translate(391,386)" style="fill: #E7F1F2;"/><path d="M0 0 C2.84331675 2.84331675 3.62641875 6.02866892 4 10 C2.6875 12 2.6875 12 1 13 C0.67 13 0.34 13 0 13 C0 8.71 0 4.42 0 0 Z " transform="translate(390,388)" style="fill: #4B3F37;"/><path d="M0 0 C2 4 2 4 1 7 C0.34 7 -0.32 7 -1 7 C-1 7.66 -1 8.32 -1 9 C-1.66 9 -2.32 9 -3 9 C-2.01 6.03 -1.02 3.06 0 0 Z " transform="translate(401,385)" style="fill: #DCE9EE;"/><path d="M0 0 C0.66 0.33 1.32 0.66 2 1 C0.515 4.96 0.515 4.96 -1 9 C-1.33 9 -1.66 9 -2 9 C-2 6.69 -2 4.38 -2 2 C-1.34 2 -0.68 2 0 2 C0 1.34 0 0.68 0 0 Z " transform="translate(400,392)" style="fill: #EEE5D1;"/></svg>